name rise30.8019peak61.5557fall86.2505.mot
datacolumns 19
datarows 14
range 14.22995000000000 14.25161400000000
endheader
time	ground_force1_vx	ground_force1_vy	ground_force1_vz	ground_force1_px	ground_force1_py	ground_force1_pz	ground_force2_vx	ground_force2_vy	ground_force2_vz	ground_force2_px	ground_force2_py	ground_force2_pz	ground_torque1_x	ground_torque1_y	ground_torque1_z	ground_torque2_x	ground_torque2_y	ground_torque2_z	
14.22995000000000	-44.18190800000000	746.69520699999998	48.80805600000000	-0.01858500000000	0.00000000000000	0.11332700000000	-8.80077700000000	21.06638400000000	5.48636300000000	0.00000000000000	0.00000000000000	0.00000000000000	0.00000000000000	8.97577700000000	0.00000000000000	0.00000000000000	0.81292500000000	0.00000000000000	
14.23161800000000	-44.17751500000000	743.42845899999998	48.42154700000000	-0.01906600000000	0.00000000000000	0.11326700000000	-10.67486600000000	26.62711600000000	6.75539800000000	0.24311300000000	0.00000000000000	-0.06361900000000	0.00000000000000	8.90901300000000	0.00000000000000	0.00000000000000	1.98187600000000	0.00000000000000	
14.23328700000000	-44.19120300000000	740.15465900000004	48.01868300000000	-0.01954000000000	0.00000000000000	0.11320100000000	-12.51455800000000	32.47814300000000	8.03567800000000	0.24612100000000	0.00000000000000	-0.06422100000000	0.00000000000000	8.84923300000000	0.00000000000000	0.00000000000000	2.40596400000000	0.00000000000000	
14.23495000000000	-44.22379500000000	736.87638800000002	47.59999100000000	-0.02000700000000	0.00000000000000	0.11312800000000	-14.25420600000000	38.49055700000000	9.28778300000000	0.24896200000000	0.00000000000000	-0.06478300000000	0.00000000000000	8.79654900000000	0.00000000000000	0.00000000000000	2.83598400000000	0.00000000000000	
14.23661400000000	-44.27608400000000	733.59599500000002	47.16601700000000	-0.02046800000000	0.00000000000000	0.11304900000000	-15.83478400000000	44.54085500000000	10.47524400000000	0.25165100000000	0.00000000000000	-0.06531100000000	0.00000000000000	8.75105300000000	0.00000000000000	0.00000000000000	3.26088400000000	0.00000000000000	
14.23827800000000	-44.34883200000000	730.31558399999994	46.71732700000000	-0.02092300000000	0.00000000000000	0.11296300000000	-17.20785900000000	50.52006800000000	11.56701200000000	0.25419900000000	0.00000000000000	-0.06580900000000	0.00000000000000	8.71282500000000	0.00000000000000	0.00000000000000	3.67066200000000	0.00000000000000	
14.23994500000000	-44.44276200000000	727.03700800000001	46.25450200000000	-0.02137100000000	0.00000000000000	0.11287100000000	-18.33826500000000	56.34064200000000	12.53919900000000	0.25661800000000	0.00000000000000	-0.06628200000000	0.00000000000000	8.68192800000000	0.00000000000000	0.00000000000000	4.05697900000000	0.00000000000000	
14.24161700000000	-44.55856300000000	723.76186499999994	45.77813500000000	-0.02181400000000	0.00000000000000	0.11277300000000	-19.20532100000000	61.94057400000000	13.37599200000000	0.25891500000000	0.00000000000000	-0.06673300000000	0.00000000000000	8.65841000000000	0.00000000000000	0.00000000000000	4.41354900000000	0.00000000000000	
14.24328300000000	-44.69687800000000	720.49148200000002	45.28883300000000	-0.02225100000000	0.00000000000000	0.11266800000000	-19.80268400000000	67.28481499999999	14.06977200000000	0.26109700000000	0.00000000000000	-0.06716600000000	0.00000000000000	8.64230200000000	0.00000000000000	0.00000000000000	4.73631100000000	0.00000000000000	
14.24494500000000	-44.85830800000000	717.22691699999996	44.78721200000000	-0.02268300000000	0.00000000000000	0.11255700000000	-20.13705600000000	72.36422100000000	14.62053500000000	0.26317100000000	0.00000000000000	-0.06758100000000	0.00000000000000	8.63362200000000	0.00000000000000	0.00000000000000	5.02337600000000	0.00000000000000	
14.24662400000000	-45.04340400000000	713.96895300000006	44.27389500000000	-0.02311000000000	0.00000000000000	0.11244000000000	-20.22601900000000	77.19253900000000	15.03479300000000	0.26514200000000	0.00000000000000	-0.06798300000000	0.00000000000000	8.63236900000000	0.00000000000000	0.00000000000000	5.27482300000000	0.00000000000000	
14.24828500000000	-45.25266800000000	710.71808799999997	43.74950800000000	-0.02353300000000	0.00000000000000	0.11231600000000	-20.09535000000000	81.80202800000001	15.32411600000000	0.26701500000000	0.00000000000000	-0.06837300000000	0.00000000000000	8.63853000000000	0.00000000000000	0.00000000000000	5.49234700000000	0.00000000000000	
14.24995100000000	-45.48654300000000	707.47454200000004	43.21468300000000	-0.02395200000000	0.00000000000000	0.11218600000000	-19.77611600000000	86.23830599999999	15.50352600000000	0.26879300000000	0.00000000000000	-0.06875100000000	0.00000000000000	8.65207400000000	0.00000000000000	0.00000000000000	5.67885000000000	0.00000000000000	
14.25161400000000	-45.74541700000000	704.23824400000001	42.67005100000000	-0.02436700000000	0.00000000000000	0.11205000000000	-19.30182700000000	90.55498500000000	15.58986800000000	0.27048100000000	0.00000000000000	-0.06912100000000	0.00000000000000	8.67295400000000	0.00000000000000	0.00000000000000	5.83799100000000	0.00000000000000	
